<svg xmlns="http://www.w3.org/2000/svg" viewBox="0 0 540 750" width="540" height="750">
  <defs>
    <marker id="a" viewBox="0 0 10 10" refX="10" refY="5" markerWidth="7" markerHeight="7" orient="auto">
      <path d="M0 0L10 5L0 10z" fill="#000"/>
    </marker>
  </defs>
  <rect width="540" height="750" fill="#fff"/>

  <!-- 标题 -->
  <text x="270" y="28" text-anchor="middle" font-family="SimSun,STSong,serif" font-size="13" font-weight="bold">图1 多智能体协同记忆压缩与冲突治理系统总体架构示意图</text>

  <!-- 输入 -->
  <rect x="170" y="50" width="200" height="38" fill="none" stroke="#000" stroke-width="1.4"/>
  <text x="270" y="74" text-anchor="middle" font-family="SimSun,STSong,serif" font-size="11">多智能体写入流</text>
  <line x1="270" y1="88" x2="270" y2="108" stroke="#000" stroke-width="1.2" marker-end="url(#a)"/>

  <!-- 101 -->
  <rect x="145" y="110" width="250" height="38" fill="none" stroke="#000" stroke-width="1.4"/>
  <text x="270" y="134" text-anchor="middle" font-family="SimSun,STSong,serif" font-size="11">101  碎片采集模块</text>
  <line x1="270" y1="148" x2="270" y2="168" stroke="#000" stroke-width="1.2" marker-end="url(#a)"/>

  <!-- 102 -->
  <rect x="145" y="170" width="250" height="38" fill="none" stroke="#000" stroke-width="1.4"/>
  <text x="270" y="194" text-anchor="middle" font-family="SimSun,STSong,serif" font-size="11">102  语义向量化模块</text>
  <line x1="270" y1="208" x2="270" y2="228" stroke="#000" stroke-width="1.2" marker-end="url(#a)"/>

  <!-- 103 -->
  <rect x="145" y="230" width="250" height="38" fill="none" stroke="#000" stroke-width="1.4"/>
  <text x="270" y="254" text-anchor="middle" font-family="SimSun,STSong,serif" font-size="11">103  增量聚类模块</text>
  <line x1="270" y1="268" x2="270" y2="288" stroke="#000" stroke-width="1.2" marker-end="url(#a)"/>

  <!-- 104 -->
  <rect x="145" y="290" width="250" height="38" fill="none" stroke="#000" stroke-width="1.4"/>
  <text x="270" y="314" text-anchor="middle" font-family="SimSun,STSong,serif" font-size="11">104  冲突证据图构建模块</text>
  <line x1="270" y1="328" x2="270" y2="348" stroke="#000" stroke-width="1.2" marker-end="url(#a)"/>
  <!-- 104 侧向输出 -->
  <line x1="395" y1="309" x2="435" y2="309" stroke="#000" stroke-width="1.2" marker-end="url(#a)"/>
  <rect x="437" y="290" width="90" height="38" fill="none" stroke="#000" stroke-width="1.0" stroke-dasharray="5,3"/>
  <text x="482" y="306" text-anchor="middle" font-family="SimSun,STSong,serif" font-size="9">冲突记录</text>
  <text x="482" y="320" text-anchor="middle" font-family="SimSun,STSong,serif" font-size="9">输出</text>

  <!-- 105 -->
  <rect x="145" y="350" width="250" height="38" fill="none" stroke="#000" stroke-width="1.4"/>
  <text x="270" y="374" text-anchor="middle" font-family="SimSun,STSong,serif" font-size="11">105  自适应预算模块</text>
  <line x1="270" y1="388" x2="270" y2="408" stroke="#000" stroke-width="1.2" marker-end="url(#a)"/>

  <!-- 106 -->
  <rect x="145" y="410" width="250" height="38" fill="none" stroke="#000" stroke-width="1.4"/>
  <text x="270" y="434" text-anchor="middle" font-family="SimSun,STSong,serif" font-size="11">106  双通道合并门控模块</text>
  <line x1="270" y1="448" x2="270" y2="468" stroke="#000" stroke-width="1.2" marker-end="url(#a)"/>

  <!-- 107 -->
  <rect x="145" y="470" width="250" height="38" fill="none" stroke="#000" stroke-width="1.4"/>
  <text x="270" y="494" text-anchor="middle" font-family="SimSun,STSong,serif" font-size="11">107  语义抽取与回指解析模块</text>
  <line x1="270" y1="508" x2="270" y2="528" stroke="#000" stroke-width="1.2" marker-end="url(#a)"/>

  <!-- 108 -->
  <rect x="145" y="530" width="250" height="38" fill="none" stroke="#000" stroke-width="1.4"/>
  <text x="270" y="554" text-anchor="middle" font-family="SimSun,STSong,serif" font-size="11">108  索引与检索模块</text>

  <!-- 108 两路输出 -->
  <line x1="160" y1="568" x2="160" y2="600" stroke="#000" stroke-width="1.2" marker-end="url(#a)"/>
  <line x1="380" y1="568" x2="380" y2="600" stroke="#000" stroke-width="1.2" marker-end="url(#a)"/>

  <rect x="80" y="602" width="160" height="38" fill="none" stroke="#000" stroke-width="1.4"/>
  <text x="160" y="626" text-anchor="middle" font-family="SimSun,STSong,serif" font-size="11">簇摘要输出</text>

  <rect x="300" y="602" width="160" height="38" fill="none" stroke="#000" stroke-width="1.4"/>
  <text x="380" y="626" text-anchor="middle" font-family="SimSun,STSong,serif" font-size="11">证据回溯输出</text>
</svg>
