<svg xmlns="http://www.w3.org/2000/svg" viewBox="0 0 500 900" width="500" height="900">
  <defs>
    <marker id="a" viewBox="0 0 10 10" refX="10" refY="5" markerWidth="7" markerHeight="7" orient="auto">
      <path d="M0 0L10 5L0 10z" fill="#000"/>
    </marker>
  </defs>
  <rect width="500" height="900" fill="#fff"/>

  <text x="250" y="28" text-anchor="middle" font-family="SimSun,STSong,serif" font-size="13" font-weight="bold">图2 多智能体协同记忆压缩与冲突治理方法流程示意图</text>

  <rect x="210" y="48" width="80" height="28" rx="12" ry="12" fill="none" stroke="#000" stroke-width="1.4"/>
  <text x="250" y="67" text-anchor="middle" font-family="SimSun,STSong,serif" font-size="10">开始</text>
  <line x1="250" y1="76" x2="250" y2="96" stroke="#000" stroke-width="1.2" marker-end="url(#a)"/>

  <rect x="115" y="98" width="270" height="38" fill="none" stroke="#000" stroke-width="1.4"/>
  <text x="250" y="122" text-anchor="middle" font-family="SimSun,STSong,serif" font-size="10">201  步骤一 接收并标准化记忆碎片</text>
  <line x1="250" y1="136" x2="250" y2="156" stroke="#000" stroke-width="1.2" marker-end="url(#a)"/>

  <rect x="115" y="158" width="270" height="38" fill="none" stroke="#000" stroke-width="1.4"/>
  <text x="250" y="182" text-anchor="middle" font-family="SimSun,STSong,serif" font-size="10">202  步骤二 语义向量化与增量聚类</text>
  <line x1="250" y1="196" x2="250" y2="216" stroke="#000" stroke-width="1.2" marker-end="url(#a)"/>

  <rect x="115" y="218" width="270" height="38" fill="none" stroke="#000" stroke-width="1.4"/>
  <text x="250" y="242" text-anchor="middle" font-family="SimSun,STSong,serif" font-size="10">203  步骤三 构建冲突证据图</text>
  <line x1="250" y1="256" x2="250" y2="276" stroke="#000" stroke-width="1.2" marker-end="url(#a)"/>

  <rect x="115" y="278" width="270" height="38" fill="none" stroke="#000" stroke-width="1.4"/>
  <text x="250" y="302" text-anchor="middle" font-family="SimSun,STSong,serif" font-size="10">204  步骤四 自适应预算分配</text>
  <line x1="250" y1="316" x2="250" y2="336" stroke="#000" stroke-width="1.2" marker-end="url(#a)"/>

  <rect x="115" y="338" width="270" height="38" fill="none" stroke="#000" stroke-width="1.4"/>
  <text x="250" y="362" text-anchor="middle" font-family="SimSun,STSong,serif" font-size="10">205  步骤五 双通道门控判定</text>
  <line x1="250" y1="376" x2="250" y2="404" stroke="#000" stroke-width="1.2" marker-end="url(#a)"/>

  <polygon points="250,406 370,456 250,506 130,456" fill="none" stroke="#000" stroke-width="1.4"/>
  <text x="250" y="452" text-anchor="middle" font-family="SimSun,STSong,serif" font-size="9">两通道均满足阈值？</text>

  <line x1="130" y1="456" x2="60" y2="456" stroke="#000" stroke-width="1.2"/>
  <line x1="60" y1="456" x2="60" y2="540" stroke="#000" stroke-width="1.2" marker-end="url(#a)"/>
  <text x="90" y="448" font-family="SimSun,STSong,serif" font-size="9">否</text>
  <rect x="10" y="542" width="160" height="44" fill="none" stroke="#000" stroke-width="1.4"/>
  <text x="90" y="560" text-anchor="middle" font-family="SimSun,STSong,serif" font-size="9">206  步骤六 阻断合并</text>
  <text x="90" y="576" text-anchor="middle" font-family="SimSun,STSong,serif" font-size="9">并保留冲突记录</text>

  <line x1="370" y1="456" x2="440" y2="456" stroke="#000" stroke-width="1.2"/>
  <line x1="440" y1="456" x2="440" y2="540" stroke="#000" stroke-width="1.2" marker-end="url(#a)"/>
  <text x="400" y="448" font-family="SimSun,STSong,serif" font-size="9">是</text>
  <rect x="330" y="542" width="160" height="44" fill="none" stroke="#000" stroke-width="1.4"/>
  <text x="410" y="560" text-anchor="middle" font-family="SimSun,STSong,serif" font-size="9">207  步骤六 执行合并</text>
  <text x="410" y="576" text-anchor="middle" font-family="SimSun,STSong,serif" font-size="9">并继续抽取</text>

  <line x1="90" y1="586" x2="90" y2="632" stroke="#000" stroke-width="1.2"/>
  <line x1="410" y1="586" x2="410" y2="632" stroke="#000" stroke-width="1.2"/>
  <line x1="90" y1="632" x2="410" y2="632" stroke="#000" stroke-width="1.2"/>
  <line x1="250" y1="632" x2="250" y2="654" stroke="#000" stroke-width="1.2" marker-end="url(#a)"/>

  <rect x="95" y="656" width="310" height="38" fill="none" stroke="#000" stroke-width="1.4"/>
  <text x="250" y="680" text-anchor="middle" font-family="SimSun,STSong,serif" font-size="10">208  步骤七 语义抽取与回指解析</text>
  <line x1="250" y1="694" x2="250" y2="714" stroke="#000" stroke-width="1.2" marker-end="url(#a)"/>

  <rect x="95" y="716" width="310" height="38" fill="none" stroke="#000" stroke-width="1.4"/>
  <text x="250" y="740" text-anchor="middle" font-family="SimSun,STSong,serif" font-size="10">209  步骤八 生成摘要与回溯索引</text>
  <line x1="250" y1="754" x2="250" y2="776" stroke="#000" stroke-width="1.2" marker-end="url(#a)"/>

  <rect x="210" y="778" width="80" height="28" rx="12" ry="12" fill="none" stroke="#000" stroke-width="1.4"/>
  <text x="250" y="797" text-anchor="middle" font-family="SimSun,STSong,serif" font-size="10">结束</text>
</svg>
