<svg xmlns="http://www.w3.org/2000/svg" viewBox="0 0 540 640" width="540" height="640">
  <defs>
    <marker id="a" viewBox="0 0 10 10" refX="10" refY="5" markerWidth="7" markerHeight="7" orient="auto">
      <path d="M0 0L10 5L0 10z" fill="#000"/>
    </marker>
  </defs>
  <rect width="540" height="640" fill="#fff"/>

  <text x="270" y="26" text-anchor="middle" font-family="SimSun,STSong,serif" font-size="13" font-weight="bold">图3 记忆碎片与冲突治理相关数据结构关系示意图</text>

  <rect x="20" y="60" width="170" height="120" fill="none" stroke="#000" stroke-width="1.4"/>
  <line x1="20" y1="84" x2="190" y2="84" stroke="#000" stroke-width="1.0"/>
  <text x="105" y="78" text-anchor="middle" font-family="SimSun,STSong,serif" font-size="10" font-weight="bold">301 记忆碎片</text>
  <text x="30" y="104" font-family="SimSun,STSong,serif" font-size="9">碎片标识</text>
  <text x="30" y="122" font-family="SimSun,STSong,serif" font-size="9">内容</text>
  <text x="30" y="140" font-family="SimSun,STSong,serif" font-size="9">来源标识</text>
  <text x="30" y="158" font-family="SimSun,STSong,serif" font-size="9">时间戳</text>

  <rect x="250" y="60" width="180" height="120" fill="none" stroke="#000" stroke-width="1.4"/>
  <line x1="250" y1="84" x2="430" y2="84" stroke="#000" stroke-width="1.0"/>
  <text x="340" y="78" text-anchor="middle" font-family="SimSun,STSong,serif" font-size="10" font-weight="bold">302 语义簇</text>
  <text x="260" y="104" font-family="SimSun,STSong,serif" font-size="9">簇标识</text>
  <text x="260" y="122" font-family="SimSun,STSong,serif" font-size="9">成员碎片列表</text>
  <text x="260" y="140" font-family="SimSun,STSong,serif" font-size="9">摘要文本</text>
  <text x="260" y="158" font-family="SimSun,STSong,serif" font-size="9">冲突优先级</text>

  <rect x="360" y="240" width="160" height="112" fill="none" stroke="#000" stroke-width="1.4"/>
  <line x1="360" y1="264" x2="520" y2="264" stroke="#000" stroke-width="1.0"/>
  <text x="440" y="258" text-anchor="middle" font-family="SimSun,STSong,serif" font-size="10" font-weight="bold">303 冲突记录</text>
  <text x="370" y="284" font-family="SimSun,STSong,serif" font-size="9">冲突标识</text>
  <text x="370" y="302" font-family="SimSun,STSong,serif" font-size="9">槽位名称</text>
  <text x="370" y="320" font-family="SimSun,STSong,serif" font-size="9">冲突值集合</text>
  <text x="370" y="338" font-family="SimSun,STSong,serif" font-size="9">证据计数</text>

  <rect x="20" y="440" width="170" height="96" fill="none" stroke="#000" stroke-width="1.4"/>
  <line x1="20" y1="464" x2="190" y2="464" stroke="#000" stroke-width="1.0"/>
  <text x="105" y="458" text-anchor="middle" font-family="SimSun,STSong,serif" font-size="10" font-weight="bold">304 偏好策略</text>
  <text x="30" y="486" font-family="SimSun,STSong,serif" font-size="9">类别权重</text>
  <text x="30" y="504" font-family="SimSun,STSong,serif" font-size="9">来源权重</text>
  <text x="30" y="522" font-family="SimSun,STSong,serif" font-size="9">时效衰减</text>

  <rect x="250" y="440" width="190" height="96" fill="none" stroke="#000" stroke-width="1.4"/>
  <line x1="250" y1="464" x2="440" y2="464" stroke="#000" stroke-width="1.0"/>
  <text x="345" y="458" text-anchor="middle" font-family="SimSun,STSong,serif" font-size="10" font-weight="bold">305 回溯索引</text>
  <text x="260" y="486" font-family="SimSun,STSong,serif" font-size="9">索引标识</text>
  <text x="260" y="504" font-family="SimSun,STSong,serif" font-size="9">所属簇标识</text>
  <text x="260" y="522" font-family="SimSun,STSong,serif" font-size="9">摘要段到碎片列表</text>

  <line x1="190" y1="120" x2="250" y2="120" stroke="#000" stroke-width="1.2" marker-end="url(#a)"/>
  <text x="220" y="112" text-anchor="middle" font-family="SimSun,STSong,serif" font-size="9">多对一</text>

  <line x1="430" y1="160" x2="450" y2="240" stroke="#000" stroke-width="1.2" marker-end="url(#a)"/>
  <text x="455" y="208" text-anchor="middle" font-family="SimSun,STSong,serif" font-size="9">一对多</text>

  <line x1="190" y1="470" x2="300" y2="184" stroke="#000" stroke-width="1.2" stroke-dasharray="6,4" marker-end="url(#a)"/>
  <text x="212" y="332" font-family="SimSun,STSong,serif" font-size="9">306</text>

  <line x1="345" y1="440" x2="345" y2="184" stroke="#000" stroke-width="1.2" marker-end="url(#a)"/>
  <text x="356" y="328" font-family="SimSun,STSong,serif" font-size="9">307</text>

  <line x1="250" y1="490" x2="105" y2="184" stroke="#000" stroke-width="1.2" stroke-dasharray="6,4" marker-end="url(#a)"/>
  <text x="150" y="348" font-family="SimSun,STSong,serif" font-size="9">308</text>
</svg>
