<svg xmlns="http://www.w3.org/2000/svg" viewBox="0 0 520 200" width="520" height="200">
  <defs>
    <marker id="a" viewBox="0 0 10 10" refX="10" refY="5" markerWidth="7" markerHeight="7" orient="auto">
      <path d="M0 0L10 5L0 10z" fill="#000"/>
    </marker>
  </defs>
  <rect width="520" height="200" fill="#fff"/>

  <text x="260" y="22" text-anchor="middle" font-family="SimSun,STSong,serif" font-size="11" font-weight="bold">摘要附图  多智能体协同记忆压缩与冲突治理系统架构</text>

  <!-- 第一行：101 102 103 104 -->
  <rect x="10" y="50" width="110" height="32" fill="none" stroke="#000" stroke-width="1.2"/>
  <text x="65" y="71" text-anchor="middle" font-family="SimSun,STSong,serif" font-size="8">101 碎片采集</text>

  <line x1="120" y1="66" x2="135" y2="66" stroke="#000" stroke-width="1.0" marker-end="url(#a)"/>

  <rect x="137" y="50" width="110" height="32" fill="none" stroke="#000" stroke-width="1.2"/>
  <text x="192" y="71" text-anchor="middle" font-family="SimSun,STSong,serif" font-size="8">102 语义向量化</text>

  <line x1="247" y1="66" x2="262" y2="66" stroke="#000" stroke-width="1.0" marker-end="url(#a)"/>

  <rect x="264" y="50" width="110" height="32" fill="none" stroke="#000" stroke-width="1.2"/>
  <text x="319" y="71" text-anchor="middle" font-family="SimSun,STSong,serif" font-size="8">103 增量聚类</text>

  <line x1="374" y1="66" x2="389" y2="66" stroke="#000" stroke-width="1.0" marker-end="url(#a)"/>

  <rect x="391" y="50" width="120" height="32" fill="none" stroke="#000" stroke-width="1.2"/>
  <text x="451" y="71" text-anchor="middle" font-family="SimSun,STSong,serif" font-size="8">104 冲突证据图</text>

  <!-- 折线到第二行 -->
  <line x1="451" y1="82" x2="451" y2="100" stroke="#000" stroke-width="1.0"/>
  <line x1="451" y1="100" x2="65" y2="100" stroke="#000" stroke-width="1.0"/>
  <line x1="65" y1="100" x2="65" y2="115" stroke="#000" stroke-width="1.0" marker-end="url(#a)"/>

  <!-- 第二行：105 106 107 108 -->
  <rect x="10" y="117" width="110" height="32" fill="none" stroke="#000" stroke-width="1.2"/>
  <text x="65" y="138" text-anchor="middle" font-family="SimSun,STSong,serif" font-size="8">105 自适应预算</text>

  <line x1="120" y1="133" x2="135" y2="133" stroke="#000" stroke-width="1.0" marker-end="url(#a)"/>

  <rect x="137" y="117" width="110" height="32" fill="none" stroke="#000" stroke-width="1.2"/>
  <text x="192" y="138" text-anchor="middle" font-family="SimSun,STSong,serif" font-size="8">106 双通道门控</text>

  <line x1="247" y1="133" x2="262" y2="133" stroke="#000" stroke-width="1.0" marker-end="url(#a)"/>

  <rect x="264" y="117" width="110" height="32" fill="none" stroke="#000" stroke-width="1.2"/>
  <text x="319" y="138" text-anchor="middle" font-family="SimSun,STSong,serif" font-size="8">107 语义抽取</text>

  <line x1="374" y1="133" x2="389" y2="133" stroke="#000" stroke-width="1.0" marker-end="url(#a)"/>

  <rect x="391" y="117" width="120" height="32" fill="none" stroke="#000" stroke-width="1.2"/>
  <text x="451" y="138" text-anchor="middle" font-family="SimSun,STSong,serif" font-size="8">108 索引与检索</text>
</svg>
